<svg width="1024" height="753" viewBox="0 0 1024 753" fill="none" xmlns="http://www.w3.org/2000/svg">
<g clip-path="url(#clip0_122_130)">
<rect width="1024" height="753" fill="#121214"/>
<g opacity="0.2" filter="url(#filter0_f_122_130)">
<ellipse cx="540" cy="255.491" rx="633" ry="324.491" fill="#35875D"/>
</g>
<path d="M87.3506 474.29C88.7623 474.29 89.831 474.875 90.5566 476.044C91.2955 477.2 91.6649 478.883 91.6649 481.092C91.6649 483.301 91.2955 484.99 90.5566 486.159C89.831 487.328 88.7623 487.913 87.3506 487.913C85.9521 487.913 84.8835 487.328 84.1447 486.159C83.4058 484.99 83.0364 483.301 83.0364 481.092C83.0364 478.895 83.4058 477.213 84.1447 476.044C84.8835 474.875 85.9521 474.29 87.3506 474.29ZM84.4415 481.092C84.4415 482.659 84.5866 483.886 84.8769 484.772L89.2703 476.236C88.8085 475.633 88.1686 475.331 87.3506 475.331C86.4403 475.331 85.7279 475.806 85.2133 476.757C84.6988 477.694 84.4415 479.139 84.4415 481.092ZM87.3506 486.853C88.2742 486.853 88.9932 486.384 89.5078 485.446C90.0223 484.496 90.2796 483.044 90.2796 481.092C90.2796 479.435 90.1146 478.15 89.7848 477.238L85.3914 485.851C85.8664 486.519 86.5195 486.853 87.3506 486.853Z" fill="url(#paint0_linear_122_130)" fill-opacity="0.6"/>
<path d="M88.538 508.719H91.4472V509.74H83.9072V508.719H87.2715V497.89L84.0655 499.759L83.5114 498.892L87.4694 496.503H88.538V508.719Z" fill="url(#paint1_linear_122_130)" fill-opacity="0.6"/>
<path d="M87.3506 518.33C88.7623 518.33 89.831 518.915 90.5566 520.084C91.2955 521.24 91.6649 522.923 91.6649 525.132C91.6649 527.341 91.2955 529.03 90.5566 530.199C89.831 531.368 88.7623 531.953 87.3506 531.953C85.9521 531.953 84.8835 531.368 84.1447 530.199C83.4058 529.03 83.0364 527.341 83.0364 525.132C83.0364 522.935 83.4058 521.253 84.1447 520.084C84.8835 518.915 85.9521 518.33 87.3506 518.33ZM84.4415 525.132C84.4415 526.699 84.5866 527.926 84.8769 528.812L89.2703 520.276C88.8085 519.673 88.1686 519.371 87.3506 519.371C86.4403 519.371 85.7279 519.846 85.2133 520.797C84.6988 521.734 84.4415 523.179 84.4415 525.132ZM87.3506 530.893C88.2742 530.893 88.9932 530.424 89.5078 529.486C90.0223 528.536 90.2796 527.084 90.2796 525.132C90.2796 523.475 90.1146 522.19 89.7848 521.278L85.3914 529.891C85.8664 530.559 86.5195 530.893 87.3506 530.893Z" fill="url(#paint2_linear_122_130)" fill-opacity="0.6"/>
<path d="M88.538 552.759H91.4472V553.78H83.9072V552.759H87.2715V541.93L84.0655 543.799L83.5114 542.932L87.4694 540.543H88.538V552.759Z" fill="url(#paint3_linear_122_130)" fill-opacity="0.6"/>
<path d="M88.538 574.779H91.4472V575.8H83.9072V574.779H87.2715V563.95L84.0655 565.819L83.5114 564.952L87.4694 562.563H88.538V574.779Z" fill="url(#paint4_linear_122_130)" fill-opacity="0.6"/>
<path d="M87.3506 584.39C88.7623 584.39 89.831 584.975 90.5566 586.144C91.2955 587.3 91.6649 588.983 91.6649 591.192C91.6649 593.401 91.2955 595.09 90.5566 596.259C89.831 597.428 88.7623 598.013 87.3506 598.013C85.9521 598.013 84.8835 597.428 84.1447 596.259C83.4058 595.09 83.0364 593.401 83.0364 591.192C83.0364 588.995 83.4058 587.313 84.1447 586.144C84.8835 584.975 85.9521 584.39 87.3506 584.39ZM84.4415 591.192C84.4415 592.759 84.5866 593.986 84.8769 594.872L89.2703 586.337C88.8085 585.733 88.1686 585.431 87.3506 585.431C86.4403 585.431 85.7279 585.906 85.2133 586.857C84.6988 587.794 84.4415 589.239 84.4415 591.192ZM87.3506 596.953C88.2742 596.953 88.9932 596.484 89.5078 595.546C90.0223 594.596 90.2796 593.144 90.2796 591.192C90.2796 589.535 90.1146 588.25 89.7848 587.338L85.3914 595.951C85.8664 596.619 86.5195 596.953 87.3506 596.953Z" fill="url(#paint5_linear_122_130)" fill-opacity="0.6"/>
<path d="M88.538 618.819H91.4472V619.84H83.9072V618.819H87.2715V607.99L84.0655 609.859L83.5114 608.992L87.4694 606.603H88.538V618.819Z" fill="url(#paint6_linear_122_130)" fill-opacity="0.6"/>
<path d="M87.3506 628.43C88.7623 628.43 89.831 629.015 90.5566 630.184C91.2955 631.34 91.6649 633.023 91.6649 635.232C91.6649 637.441 91.2955 639.13 90.5566 640.299C89.831 641.468 88.7623 642.053 87.3506 642.053C85.9521 642.053 84.8835 641.468 84.1447 640.299C83.4058 639.13 83.0364 637.441 83.0364 635.232C83.0364 633.035 83.4058 631.353 84.1447 630.184C84.8835 629.015 85.9521 628.43 87.3506 628.43ZM84.4415 635.232C84.4415 636.799 84.5866 638.026 84.8769 638.912L89.2703 630.377C88.8085 629.773 88.1686 629.471 87.3506 629.471C86.4403 629.471 85.7279 629.946 85.2133 630.897C84.6988 631.834 84.4415 633.279 84.4415 635.232ZM87.3506 640.993C88.2742 640.993 88.9932 640.524 89.5078 639.586C90.0223 638.636 90.2796 637.184 90.2796 635.232C90.2796 633.575 90.1146 632.29 89.7848 631.378L85.3914 639.991C85.8664 640.659 86.5195 640.993 87.3506 640.993Z" fill="url(#paint7_linear_122_130)" fill-opacity="0.6"/>
<path d="M87.3506 650.451C88.7623 650.451 89.831 651.035 90.5566 652.204C91.2955 653.36 91.6649 655.043 91.6649 657.252C91.6649 659.461 91.2955 661.15 90.5566 662.319C89.831 663.488 88.7623 664.073 87.3506 664.073C85.9521 664.073 84.8835 663.488 84.1447 662.319C83.4058 661.15 83.0364 659.461 83.0364 657.252C83.0364 655.055 83.4058 653.373 84.1447 652.204C84.8835 651.035 85.9521 650.451 87.3506 650.451ZM84.4415 657.252C84.4415 658.819 84.5866 660.046 84.8769 660.932L89.2703 652.397C88.8085 651.793 88.1686 651.491 87.3506 651.491C86.4403 651.491 85.7279 651.966 85.2133 652.917C84.6988 653.854 84.4415 655.3 84.4415 657.252ZM87.3506 663.013C88.2742 663.013 88.9932 662.544 89.5078 661.606C90.0223 660.656 90.2796 659.204 90.2796 657.252C90.2796 655.595 90.1146 654.31 89.7848 653.398L85.3914 662.011C85.8664 662.679 86.5195 663.013 87.3506 663.013Z" fill="url(#paint8_linear_122_130)" fill-opacity="0.6"/>
<path d="M88.538 684.879H91.4472V685.9H83.9072V684.879H87.2715V674.05L84.0655 675.919L83.5114 675.052L87.4694 672.663H88.538V684.879Z" fill="url(#paint9_linear_122_130)" fill-opacity="0.6"/>
<path d="M87.3506 694.491C88.7623 694.491 89.831 695.075 90.5566 696.244C91.2955 697.4 91.6649 699.083 91.6649 701.292C91.6649 703.501 91.2955 705.19 90.5566 706.359C89.831 707.528 88.7623 708.113 87.3506 708.113C85.9521 708.113 84.8835 707.528 84.1447 706.359C83.4058 705.19 83.0364 703.501 83.0364 701.292C83.0364 699.095 83.4058 697.413 84.1447 696.244C84.8835 695.075 85.9521 694.491 87.3506 694.491ZM84.4415 701.292C84.4415 702.859 84.5866 704.086 84.8769 704.972L89.2703 696.437C88.8085 695.833 88.1686 695.531 87.3506 695.531C86.4403 695.531 85.7279 696.006 85.2133 696.957C84.6988 697.894 84.4415 699.34 84.4415 701.292ZM87.3506 707.053C88.2742 707.053 88.9932 706.584 89.5078 705.646C90.0223 704.696 90.2796 703.244 90.2796 701.292C90.2796 699.635 90.1146 698.35 89.7848 697.438L85.3914 706.051C85.8664 706.719 86.5195 707.053 87.3506 707.053Z" fill="url(#paint10_linear_122_130)" fill-opacity="0.6"/>
<path d="M88.538 728.919H91.4472V729.94H83.9072V728.919H87.2715V718.09L84.0655 719.959L83.5114 719.092L87.4694 716.703H88.538V728.919Z" fill="url(#paint11_linear_122_130)" fill-opacity="0.6"/>
<path d="M88.538 750.939H91.4472V751.96H83.9072V750.939H87.2715V740.11L84.0655 741.979L83.5114 741.112L87.4694 738.723H88.538V750.939Z" fill="url(#paint12_linear_122_130)" fill-opacity="0.6"/>
<path d="M124.104 518.33C125.515 518.33 126.584 518.915 127.31 520.084C128.048 521.24 128.418 522.923 128.418 525.132C128.418 527.341 128.048 529.03 127.31 530.199C126.584 531.368 125.515 531.953 124.104 531.953C122.705 531.953 121.636 531.368 120.898 530.199C120.159 529.03 119.789 527.341 119.789 525.132C119.789 522.935 120.159 521.253 120.898 520.084C121.636 518.915 122.705 518.33 124.104 518.33ZM121.194 525.132C121.194 526.699 121.34 527.926 121.63 528.812L126.023 520.276C125.561 519.673 124.922 519.371 124.104 519.371C123.193 519.371 122.481 519.846 121.966 520.797C121.452 521.734 121.194 523.179 121.194 525.132ZM124.104 530.893C125.027 530.893 125.746 530.424 126.261 529.486C126.775 528.536 127.032 527.084 127.032 525.132C127.032 523.475 126.868 522.19 126.538 521.278L122.144 529.891C122.619 530.559 123.272 530.893 124.104 530.893Z" fill="url(#paint13_linear_122_130)" fill-opacity="0.6"/>
<path d="M125.291 552.759H128.2V553.78H120.66V552.759H124.024V541.93L120.818 543.799L120.264 542.932L124.222 540.543H125.291V552.759Z" fill="url(#paint14_linear_122_130)" fill-opacity="0.6"/>
<path d="M124.104 562.37C125.515 562.37 126.584 562.955 127.31 564.124C128.048 565.28 128.418 566.963 128.418 569.172C128.418 571.381 128.048 573.07 127.31 574.239C126.584 575.408 125.515 575.993 124.104 575.993C122.705 575.993 121.636 575.408 120.898 574.239C120.159 573.07 119.789 571.381 119.789 569.172C119.789 566.975 120.159 565.293 120.898 564.124C121.636 562.955 122.705 562.37 124.104 562.37ZM121.194 569.172C121.194 570.739 121.34 571.966 121.63 572.852L126.023 564.317C125.561 563.713 124.922 563.411 124.104 563.411C123.193 563.411 122.481 563.886 121.966 564.837C121.452 565.774 121.194 567.219 121.194 569.172ZM124.104 574.933C125.027 574.933 125.746 574.464 126.261 573.526C126.775 572.576 127.032 571.124 127.032 569.172C127.032 567.515 126.868 566.23 126.538 565.318L122.144 573.931C122.619 574.599 123.272 574.933 124.104 574.933Z" fill="url(#paint15_linear_122_130)" fill-opacity="0.6"/>
<path d="M124.104 584.39C125.515 584.39 126.584 584.975 127.31 586.144C128.048 587.3 128.418 588.983 128.418 591.192C128.418 593.401 128.048 595.09 127.31 596.259C126.584 597.428 125.515 598.013 124.104 598.013C122.705 598.013 121.636 597.428 120.898 596.259C120.159 595.09 119.789 593.401 119.789 591.192C119.789 588.995 120.159 587.313 120.898 586.144C121.636 584.975 122.705 584.39 124.104 584.39ZM121.194 591.192C121.194 592.759 121.34 593.986 121.63 594.872L126.023 586.337C125.561 585.733 124.922 585.431 124.104 585.431C123.193 585.431 122.481 585.906 121.966 586.857C121.452 587.794 121.194 589.239 121.194 591.192ZM124.104 596.953C125.027 596.953 125.746 596.484 126.261 595.546C126.775 594.596 127.032 593.144 127.032 591.192C127.032 589.535 126.868 588.25 126.538 587.338L122.144 595.951C122.619 596.619 123.272 596.953 124.104 596.953Z" fill="url(#paint16_linear_122_130)" fill-opacity="0.6"/>
<path d="M125.291 618.819H128.2V619.84H120.66V618.819H124.024V607.99L120.818 609.859L120.264 608.992L124.222 606.603H125.291V618.819Z" fill="url(#paint17_linear_122_130)" fill-opacity="0.6"/>
<path d="M124.104 628.43C125.515 628.43 126.584 629.015 127.31 630.184C128.048 631.34 128.418 633.023 128.418 635.232C128.418 637.441 128.048 639.13 127.31 640.299C126.584 641.468 125.515 642.053 124.104 642.053C122.705 642.053 121.636 641.468 120.898 640.299C120.159 639.13 119.789 637.441 119.789 635.232C119.789 633.035 120.159 631.353 120.898 630.184C121.636 629.015 122.705 628.43 124.104 628.43ZM121.194 635.232C121.194 636.799 121.34 638.026 121.63 638.912L126.023 630.377C125.561 629.773 124.922 629.471 124.104 629.471C123.193 629.471 122.481 629.946 121.966 630.897C121.452 631.834 121.194 633.279 121.194 635.232ZM124.104 640.993C125.027 640.993 125.746 640.524 126.261 639.586C126.775 638.636 127.032 637.184 127.032 635.232C127.032 633.575 126.868 632.29 126.538 631.378L122.144 639.991C122.619 640.659 123.272 640.993 124.104 640.993Z" fill="url(#paint18_linear_122_130)" fill-opacity="0.6"/>
<path d="M125.291 662.859H128.2V663.88H120.66V662.859H124.024V652.03L120.818 653.899L120.264 653.032L124.222 650.643H125.291V662.859Z" fill="url(#paint19_linear_122_130)" fill-opacity="0.6"/>
<path d="M124.104 672.471C125.515 672.471 126.584 673.055 127.31 674.224C128.048 675.38 128.418 677.063 128.418 679.272C128.418 681.481 128.048 683.17 127.31 684.339C126.584 685.508 125.515 686.093 124.104 686.093C122.705 686.093 121.636 685.508 120.898 684.339C120.159 683.17 119.789 681.481 119.789 679.272C119.789 677.075 120.159 675.393 120.898 674.224C121.636 673.055 122.705 672.471 124.104 672.471ZM121.194 679.272C121.194 680.839 121.34 682.066 121.63 682.952L126.023 674.417C125.561 673.813 124.922 673.511 124.104 673.511C123.193 673.511 122.481 673.986 121.966 674.937C121.452 675.874 121.194 677.319 121.194 679.272ZM124.104 685.033C125.027 685.033 125.746 684.564 126.261 683.626C126.775 682.676 127.032 681.224 127.032 679.272C127.032 677.615 126.868 676.33 126.538 675.418L122.144 684.031C122.619 684.699 123.272 685.033 124.104 685.033Z" fill="url(#paint20_linear_122_130)" fill-opacity="0.6"/>
<path d="M124.104 694.491C125.515 694.491 126.584 695.075 127.31 696.244C128.048 697.4 128.418 699.083 128.418 701.292C128.418 703.501 128.048 705.19 127.31 706.359C126.584 707.528 125.515 708.113 124.104 708.113C122.705 708.113 121.636 707.528 120.898 706.359C120.159 705.19 119.789 703.501 119.789 701.292C119.789 699.095 120.159 697.413 120.898 696.244C121.636 695.075 122.705 694.491 124.104 694.491ZM121.194 701.292C121.194 702.859 121.34 704.086 121.63 704.972L126.023 696.437C125.561 695.833 124.922 695.531 124.104 695.531C123.193 695.531 122.481 696.006 121.966 696.957C121.452 697.894 121.194 699.34 121.194 701.292ZM124.104 707.053C125.027 707.053 125.746 706.584 126.261 705.646C126.775 704.696 127.032 703.244 127.032 701.292C127.032 699.635 126.868 698.35 126.538 697.438L122.144 706.051C122.619 706.719 123.272 707.053 124.104 707.053Z" fill="url(#paint21_linear_122_130)" fill-opacity="0.6"/>
<path d="M125.291 728.919H128.2V729.94H120.66V728.919H124.024V718.09L120.818 719.959L120.264 719.092L124.222 716.703H125.291V728.919Z" fill="url(#paint22_linear_122_130)" fill-opacity="0.6"/>
<path d="M124.104 738.531C125.515 738.531 126.584 739.115 127.31 740.284C128.048 741.44 128.418 743.123 128.418 745.332C128.418 747.541 128.048 749.23 127.31 750.399C126.584 751.568 125.515 752.153 124.104 752.153C122.705 752.153 121.636 751.568 120.898 750.399C120.159 749.23 119.789 747.541 119.789 745.332C119.789 743.135 120.159 741.453 120.898 740.284C121.636 739.115 122.705 738.531 124.104 738.531ZM121.194 745.332C121.194 746.899 121.34 748.126 121.63 749.012L126.023 740.477C125.561 739.873 124.922 739.571 124.104 739.571C123.193 739.571 122.481 740.046 121.966 740.997C121.452 741.934 121.194 743.38 121.194 745.332ZM124.104 751.093C125.027 751.093 125.746 750.624 126.261 749.686C126.775 748.736 127.032 747.284 127.032 745.332C127.032 743.675 126.868 742.39 126.538 741.478L122.144 750.091C122.619 750.759 123.272 751.093 124.104 751.093Z" fill="url(#paint23_linear_122_130)" fill-opacity="0.6"/>
<path d="M125.291 772.959H128.2V773.98H120.66V772.959H124.024V762.13L120.818 763.999L120.264 763.132L124.222 760.743H125.291V772.959Z" fill="url(#paint24_linear_122_130)" fill-opacity="0.6"/>
<path d="M125.291 794.979H128.2V796H120.66V794.979H124.024V784.15L120.818 786.019L120.264 785.152L124.222 782.763H125.291V794.979Z" fill="url(#paint25_linear_122_130)" fill-opacity="0.6"/>
<path d="M68.9742 540.35C70.3859 540.35 71.4545 540.935 72.1802 542.104C72.919 543.26 73.2884 544.943 73.2884 547.152C73.2884 549.361 72.919 551.05 72.1802 552.219C71.4545 553.388 70.3859 553.973 68.9742 553.973C67.5757 553.973 66.507 553.388 65.7682 552.219C65.0294 551.05 64.66 549.361 64.66 547.152C64.66 544.955 65.0294 543.273 65.7682 542.104C66.507 540.935 67.5757 540.35 68.9742 540.35ZM66.0651 547.152C66.0651 548.719 66.2102 549.946 66.5004 550.832L70.8938 542.297C70.4321 541.693 69.7922 541.391 68.9742 541.391C68.0639 541.391 67.3514 541.866 66.8369 542.817C66.3223 543.754 66.0651 545.199 66.0651 547.152ZM68.9742 552.913C69.8977 552.913 70.6168 552.444 71.1313 551.506C71.6458 550.556 71.9031 549.104 71.9031 547.152C71.9031 545.495 71.7382 544.21 71.4084 543.298L67.015 551.911C67.4899 552.579 68.143 552.913 68.9742 552.913Z" fill="url(#paint26_linear_122_130)" fill-opacity="0.6"/>
<path d="M68.9742 562.37C70.3859 562.37 71.4545 562.955 72.1802 564.124C72.919 565.28 73.2884 566.963 73.2884 569.172C73.2884 571.381 72.919 573.07 72.1802 574.239C71.4545 575.408 70.3859 575.993 68.9742 575.993C67.5757 575.993 66.507 575.408 65.7682 574.239C65.0294 573.07 64.66 571.381 64.66 569.172C64.66 566.975 65.0294 565.293 65.7682 564.124C66.507 562.955 67.5757 562.37 68.9742 562.37ZM66.0651 569.172C66.0651 570.739 66.2102 571.966 66.5004 572.852L70.8938 564.317C70.4321 563.713 69.7922 563.411 68.9742 563.411C68.0639 563.411 67.3514 563.886 66.8369 564.837C66.3223 565.774 66.0651 567.219 66.0651 569.172ZM68.9742 574.933C69.8977 574.933 70.6168 574.464 71.1313 573.526C71.6458 572.576 71.9031 571.124 71.9031 569.172C71.9031 567.515 71.7382 566.23 71.4084 565.318L67.015 573.931C67.4899 574.599 68.143 574.933 68.9742 574.933Z" fill="url(#paint27_linear_122_130)" fill-opacity="0.6"/>
<path d="M70.1616 596.799H73.0707V597.82H65.5307V596.799H68.895V585.97L65.6891 587.839L65.1349 586.972L69.0929 584.583H70.1616V596.799Z" fill="url(#paint28_linear_122_130)" fill-opacity="0.6"/>
<path d="M68.9742 606.41C70.3859 606.41 71.4545 606.995 72.1802 608.164C72.919 609.32 73.2884 611.003 73.2884 613.212C73.2884 615.421 72.919 617.11 72.1802 618.279C71.4545 619.448 70.3859 620.033 68.9742 620.033C67.5757 620.033 66.507 619.448 65.7682 618.279C65.0294 617.11 64.66 615.421 64.66 613.212C64.66 611.015 65.0294 609.333 65.7682 608.164C66.507 606.995 67.5757 606.41 68.9742 606.41ZM66.0651 613.212C66.0651 614.779 66.2102 616.006 66.5004 616.892L70.8938 608.357C70.4321 607.753 69.7922 607.451 68.9742 607.451C68.0639 607.451 67.3514 607.926 66.8369 608.877C66.3223 609.814 66.0651 611.259 66.0651 613.212ZM68.9742 618.973C69.8977 618.973 70.6168 618.504 71.1313 617.566C71.6458 616.616 71.9031 615.164 71.9031 613.212C71.9031 611.555 71.7382 610.27 71.4084 609.358L67.015 617.971C67.4899 618.639 68.143 618.973 68.9742 618.973Z" fill="url(#paint29_linear_122_130)" fill-opacity="0.6"/>
<path d="M70.1616 640.839H73.0707V641.86H65.5307V640.839H68.895V630.01L65.6891 631.879L65.1349 631.012L69.0929 628.623H70.1616V640.839Z" fill="url(#paint30_linear_122_130)" fill-opacity="0.6"/>
<path d="M70.1616 662.859H73.0707V663.88H65.5307V662.859H68.895V652.03L65.6891 653.899L65.1349 653.032L69.0929 650.643H70.1616V662.859Z" fill="url(#paint31_linear_122_130)" fill-opacity="0.6"/>
<path d="M106.914 508.719H109.824V509.74H102.284V508.719H105.648V497.89L102.442 499.759L101.888 498.892L105.846 496.503H106.914V508.719Z" fill="url(#paint32_linear_122_130)" fill-opacity="0.6"/>
<path d="M105.727 518.33C107.139 518.33 108.207 518.915 108.933 520.084C109.672 521.24 110.041 522.923 110.041 525.132C110.041 527.341 109.672 529.03 108.933 530.199C108.207 531.368 107.139 531.953 105.727 531.953C104.329 531.953 103.26 531.368 102.521 530.199C101.782 529.03 101.413 527.341 101.413 525.132C101.413 522.935 101.782 521.253 102.521 520.084C103.26 518.915 104.329 518.33 105.727 518.33ZM102.818 525.132C102.818 526.699 102.963 527.926 103.253 528.812L107.647 520.276C107.185 519.673 106.545 519.371 105.727 519.371C104.817 519.371 104.104 519.846 103.59 520.797C103.075 521.734 102.818 523.179 102.818 525.132ZM105.727 530.893C106.651 530.893 107.37 530.424 107.884 529.486C108.399 528.536 108.656 527.084 108.656 525.132C108.656 523.475 108.491 522.19 108.161 521.278L103.768 529.891C104.243 530.559 104.896 530.893 105.727 530.893Z" fill="url(#paint33_linear_122_130)" fill-opacity="0.6"/>
<path d="M106.914 552.759H109.824V553.78H102.284V552.759H105.648V541.93L102.442 543.799L101.888 542.932L105.846 540.543H106.914V552.759Z" fill="url(#paint34_linear_122_130)" fill-opacity="0.6"/>
<path d="M106.914 574.779H109.824V575.8H102.284V574.779H105.648V563.95L102.442 565.819L101.888 564.952L105.846 562.563H106.914V574.779Z" fill="url(#paint35_linear_122_130)" fill-opacity="0.6"/>
<path d="M105.727 584.39C107.139 584.39 108.207 584.975 108.933 586.144C109.672 587.3 110.041 588.983 110.041 591.192C110.041 593.401 109.672 595.09 108.933 596.259C108.207 597.428 107.139 598.013 105.727 598.013C104.329 598.013 103.26 597.428 102.521 596.259C101.782 595.09 101.413 593.401 101.413 591.192C101.413 588.995 101.782 587.313 102.521 586.144C103.26 584.975 104.329 584.39 105.727 584.39ZM102.818 591.192C102.818 592.759 102.963 593.986 103.253 594.872L107.647 586.337C107.185 585.733 106.545 585.431 105.727 585.431C104.817 585.431 104.104 585.906 103.59 586.857C103.075 587.794 102.818 589.239 102.818 591.192ZM105.727 596.953C106.651 596.953 107.37 596.484 107.884 595.546C108.399 594.596 108.656 593.144 108.656 591.192C108.656 589.535 108.491 588.25 108.161 587.338L103.768 595.951C104.243 596.619 104.896 596.953 105.727 596.953Z" fill="url(#paint36_linear_122_130)" fill-opacity="0.6"/>
<path d="M106.914 618.819H109.824V619.84H102.284V618.819H105.648V607.99L102.442 609.859L101.888 608.992L105.846 606.603H106.914V618.819Z" fill="url(#paint37_linear_122_130)" fill-opacity="0.6"/>
<path d="M106.914 640.839H109.824V641.86H102.284V640.839H105.648V630.01L102.442 631.879L101.888 631.012L105.846 628.623H106.914V640.839Z" fill="url(#paint38_linear_122_130)" fill-opacity="0.6"/>
<path d="M105.727 650.451C107.139 650.451 108.207 651.035 108.933 652.204C109.672 653.36 110.041 655.043 110.041 657.252C110.041 659.461 109.672 661.15 108.933 662.319C108.207 663.488 107.139 664.073 105.727 664.073C104.329 664.073 103.26 663.488 102.521 662.319C101.782 661.15 101.413 659.461 101.413 657.252C101.413 655.055 101.782 653.373 102.521 652.204C103.26 651.035 104.329 650.451 105.727 650.451ZM102.818 657.252C102.818 658.819 102.963 660.046 103.253 660.932L107.647 652.397C107.185 651.793 106.545 651.491 105.727 651.491C104.817 651.491 104.104 651.966 103.59 652.917C103.075 653.854 102.818 655.3 102.818 657.252ZM105.727 663.013C106.651 663.013 107.37 662.544 107.884 661.606C108.399 660.656 108.656 659.204 108.656 657.252C108.656 655.595 108.491 654.31 108.161 653.398L103.768 662.011C104.243 662.679 104.896 663.013 105.727 663.013Z" fill="url(#paint39_linear_122_130)" fill-opacity="0.6"/>
<path d="M106.914 684.879H109.824V685.9H102.284V684.879H105.648V674.05L102.442 675.919L101.888 675.052L105.846 672.663H106.914V684.879Z" fill="url(#paint40_linear_122_130)" fill-opacity="0.6"/>
<path d="M105.727 694.491C107.139 694.491 108.207 695.075 108.933 696.244C109.672 697.4 110.041 699.083 110.041 701.292C110.041 703.501 109.672 705.19 108.933 706.359C108.207 707.528 107.139 708.113 105.727 708.113C104.329 708.113 103.26 707.528 102.521 706.359C101.782 705.19 101.413 703.501 101.413 701.292C101.413 699.095 101.782 697.413 102.521 696.244C103.26 695.075 104.329 694.491 105.727 694.491ZM102.818 701.292C102.818 702.859 102.963 704.086 103.253 704.972L107.647 696.437C107.185 695.833 106.545 695.531 105.727 695.531C104.817 695.531 104.104 696.006 103.59 696.957C103.075 697.894 102.818 699.34 102.818 701.292ZM105.727 707.053C106.651 707.053 107.37 706.584 107.884 705.646C108.399 704.696 108.656 703.244 108.656 701.292C108.656 699.635 108.491 698.35 108.161 697.438L103.768 706.051C104.243 706.719 104.896 707.053 105.727 707.053Z" fill="url(#paint41_linear_122_130)" fill-opacity="0.6"/>
<path d="M142.48 496.31C143.892 496.31 144.96 496.895 145.686 498.064C146.425 499.22 146.794 500.903 146.794 503.112C146.794 505.321 146.425 507.01 145.686 508.179C144.96 509.348 143.892 509.933 142.48 509.933C141.081 509.933 140.013 509.348 139.274 508.179C138.535 507.01 138.166 505.321 138.166 503.112C138.166 500.915 138.535 499.233 139.274 498.064C140.013 496.895 141.081 496.31 142.48 496.31ZM139.571 503.112C139.571 504.679 139.716 505.906 140.006 506.792L144.4 498.256C143.938 497.653 143.298 497.351 142.48 497.351C141.57 497.351 140.857 497.826 140.343 498.777C139.828 499.714 139.571 501.159 139.571 503.112ZM142.48 508.873C143.404 508.873 144.123 508.404 144.637 507.466C145.152 506.516 145.409 505.064 145.409 503.112C145.409 501.455 145.244 500.17 144.914 499.258L140.521 507.871C140.996 508.539 141.649 508.873 142.48 508.873Z" fill="url(#paint42_linear_122_130)" fill-opacity="0.6"/>
<path d="M143.667 530.739H146.577V531.76H139.037V530.739H142.401V519.91L139.195 521.779L138.641 520.912L142.599 518.523H143.667V530.739Z" fill="url(#paint43_linear_122_130)" fill-opacity="0.6"/>
<path d="M143.667 552.759H146.577V553.78H139.037V552.759H142.401V541.93L139.195 543.799L138.641 542.932L142.599 540.543H143.667V552.759Z" fill="url(#paint44_linear_122_130)" fill-opacity="0.6"/>
<path d="M142.48 562.37C143.892 562.37 144.96 562.955 145.686 564.124C146.425 565.28 146.794 566.963 146.794 569.172C146.794 571.381 146.425 573.07 145.686 574.239C144.96 575.408 143.892 575.993 142.48 575.993C141.081 575.993 140.013 575.408 139.274 574.239C138.535 573.07 138.166 571.381 138.166 569.172C138.166 566.975 138.535 565.293 139.274 564.124C140.013 562.955 141.081 562.37 142.48 562.37ZM139.571 569.172C139.571 570.739 139.716 571.966 140.006 572.852L144.4 564.317C143.938 563.713 143.298 563.411 142.48 563.411C141.57 563.411 140.857 563.886 140.343 564.837C139.828 565.774 139.571 567.219 139.571 569.172ZM142.48 574.933C143.404 574.933 144.123 574.464 144.637 573.526C145.152 572.576 145.409 571.124 145.409 569.172C145.409 567.515 145.244 566.23 144.914 565.318L140.521 573.931C140.996 574.599 141.649 574.933 142.48 574.933Z" fill="url(#paint45_linear_122_130)" fill-opacity="0.6"/>
<path d="M142.48 584.39C143.892 584.39 144.96 584.975 145.686 586.144C146.425 587.3 146.794 588.983 146.794 591.192C146.794 593.401 146.425 595.09 145.686 596.259C144.96 597.428 143.892 598.013 142.48 598.013C141.081 598.013 140.013 597.428 139.274 596.259C138.535 595.09 138.166 593.401 138.166 591.192C138.166 588.995 138.535 587.313 139.274 586.144C140.013 584.975 141.081 584.39 142.48 584.39ZM139.571 591.192C139.571 592.759 139.716 593.986 140.006 594.872L144.4 586.337C143.938 585.733 143.298 585.431 142.48 585.431C141.57 585.431 140.857 585.906 140.343 586.857C139.828 587.794 139.571 589.239 139.571 591.192ZM142.48 596.953C143.404 596.953 144.123 596.484 144.637 595.546C145.152 594.596 145.409 593.144 145.409 591.192C145.409 589.535 145.244 588.25 144.914 587.338L140.521 595.951C140.996 596.619 141.649 596.953 142.48 596.953Z" fill="url(#paint46_linear_122_130)" fill-opacity="0.6"/>
<g opacity="0.6">
<path d="M924.643 196.155C925.99 196.155 927.009 196.716 927.702 197.838C928.406 198.947 928.759 200.562 928.759 202.682C928.759 204.803 928.406 206.424 927.702 207.545C927.009 208.667 925.99 209.228 924.643 209.228C923.309 209.228 922.289 208.667 921.584 207.545C920.88 206.424 920.527 204.803 920.527 202.682C920.527 200.575 920.88 198.96 921.584 197.838C922.289 196.716 923.309 196.155 924.643 196.155ZM921.868 202.682C921.868 204.186 922.006 205.363 922.283 206.214L926.474 198.023C926.034 197.444 925.423 197.154 924.643 197.154C923.775 197.154 923.095 197.61 922.604 198.522C922.113 199.422 921.868 200.809 921.868 202.682ZM924.643 208.211C925.524 208.211 926.21 207.761 926.701 206.861C927.192 205.949 927.437 204.556 927.437 202.682C927.437 201.092 927.28 199.86 926.965 198.984L922.774 207.249C923.227 207.89 923.85 208.211 924.643 208.211Z" fill="url(#paint47_linear_122_130)"/>
<path d="M925.776 229.195H928.551V230.175H921.358V229.195H924.568V218.803L921.509 220.597L920.98 219.765L924.756 217.472H925.776V229.195Z" fill="url(#paint48_linear_122_130)"/>
<path d="M924.643 238.419C925.99 238.419 927.009 238.979 927.702 240.101C928.406 241.211 928.759 242.825 928.759 244.946C928.759 247.066 928.406 248.687 927.702 249.809C927.009 250.93 925.99 251.491 924.643 251.491C923.309 251.491 922.289 250.93 921.584 249.809C920.88 248.687 920.527 247.066 920.527 244.946C920.527 242.838 920.88 241.223 921.584 240.101C922.289 238.979 923.309 238.419 924.643 238.419ZM921.868 244.946C921.868 246.449 922.006 247.627 922.283 248.477L926.474 240.286C926.034 239.707 925.423 239.417 924.643 239.417C923.775 239.417 923.095 239.873 922.604 240.785C922.113 241.685 921.868 243.072 921.868 244.946ZM924.643 250.474C925.524 250.474 926.21 250.024 926.701 249.124C927.192 248.212 927.437 246.819 927.437 244.946C927.437 243.355 927.28 242.123 926.965 241.248L922.774 249.513C923.227 250.154 923.85 250.474 924.643 250.474Z" fill="url(#paint49_linear_122_130)"/>
<path d="M925.776 271.458H928.551V272.438H921.358V271.458H924.568V261.066L921.509 262.86L920.98 262.028L924.756 259.735H925.776V271.458Z" fill="url(#paint50_linear_122_130)"/>
<path d="M925.776 292.589H928.551V293.569H921.358V292.589H924.568V282.198L921.509 283.991L920.98 283.159L924.756 280.867H925.776V292.589Z" fill="url(#paint51_linear_122_130)"/>
<path d="M924.643 301.813C925.99 301.813 927.009 302.374 927.702 303.496C928.406 304.605 928.759 306.22 928.759 308.34C928.759 310.461 928.406 312.082 927.702 313.203C927.009 314.325 925.99 314.886 924.643 314.886C923.309 314.886 922.289 314.325 921.584 313.203C920.88 312.082 920.527 310.461 920.527 308.34C920.527 306.232 920.88 304.618 921.584 303.496C922.289 302.374 923.309 301.813 924.643 301.813ZM921.868 308.34C921.868 309.844 922.006 311.021 922.283 311.872L926.474 303.681C926.034 303.101 925.423 302.812 924.643 302.812C923.775 302.812 923.095 303.268 922.604 304.18C922.113 305.08 921.868 306.467 921.868 308.34ZM924.643 313.869C925.524 313.869 926.21 313.419 926.701 312.519C927.192 311.607 927.437 310.214 927.437 308.34C927.437 306.75 927.28 305.518 926.965 304.642L922.774 312.907C923.227 313.548 923.85 313.869 924.643 313.869Z" fill="url(#paint52_linear_122_130)"/>
<path d="M925.776 334.853H928.551V335.833H921.358V334.853H924.568V324.461L921.509 326.255L920.98 325.423L924.756 323.13H925.776V334.853Z" fill="url(#paint53_linear_122_130)"/>
<path d="M924.643 344.077C925.99 344.077 927.009 344.637 927.702 345.759C928.406 346.869 928.759 348.483 928.759 350.604C928.759 352.724 928.406 354.345 927.702 355.466C927.009 356.588 925.99 357.149 924.643 357.149C923.309 357.149 922.289 356.588 921.584 355.466C920.88 354.345 920.527 352.724 920.527 350.604C920.527 348.496 920.88 346.881 921.584 345.759C922.289 344.637 923.309 344.077 924.643 344.077ZM921.868 350.604C921.868 352.107 922.006 353.285 922.283 354.135L926.474 345.944C926.034 345.365 925.423 345.075 924.643 345.075C923.775 345.075 923.095 345.531 922.604 346.443C922.113 347.343 921.868 348.73 921.868 350.604ZM924.643 356.132C925.524 356.132 926.21 355.682 926.701 354.782C927.192 353.87 927.437 352.477 927.437 350.604C927.437 349.013 927.28 347.781 926.965 346.906L922.774 355.171C923.227 355.812 923.85 356.132 924.643 356.132Z" fill="url(#paint54_linear_122_130)"/>
<path d="M924.643 365.208C925.99 365.208 927.009 365.769 927.702 366.891C928.406 368 928.759 369.615 928.759 371.735C928.759 373.855 928.406 375.476 927.702 376.598C927.009 377.72 925.99 378.281 924.643 378.281C923.309 378.281 922.289 377.72 921.584 376.598C920.88 375.476 920.527 373.855 920.527 371.735C920.527 369.627 920.88 368.012 921.584 366.891C922.289 365.769 923.309 365.208 924.643 365.208ZM921.868 371.735C921.868 373.239 922.006 374.416 922.283 375.267L926.474 367.076C926.034 366.496 925.423 366.207 924.643 366.207C923.775 366.207 923.095 366.663 922.604 367.575C922.113 368.475 921.868 369.861 921.868 371.735ZM924.643 377.264C925.524 377.264 926.21 376.814 926.701 375.914C927.192 375.002 927.437 373.609 927.437 371.735C927.437 370.145 927.28 368.912 926.965 368.037L922.774 376.302C923.227 376.943 923.85 377.264 924.643 377.264Z" fill="url(#paint55_linear_122_130)"/>
<path d="M925.776 398.247H928.551V399.227H921.358V398.247H924.568V387.856L921.509 389.649L920.98 388.817L924.756 386.525H925.776V398.247Z" fill="url(#paint56_linear_122_130)"/>
<path d="M924.643 407.471C925.99 407.471 927.009 408.032 927.702 409.154C928.406 410.263 928.759 411.878 928.759 413.998C928.759 416.119 928.406 417.739 927.702 418.861C927.009 419.983 925.99 420.544 924.643 420.544C923.309 420.544 922.289 419.983 921.584 418.861C920.88 417.739 920.527 416.119 920.527 413.998C920.527 411.89 920.88 410.276 921.584 409.154C922.289 408.032 923.309 407.471 924.643 407.471ZM921.868 413.998C921.868 415.502 922.006 416.679 922.283 417.53L926.474 409.339C926.034 408.759 925.423 408.47 924.643 408.47C923.775 408.47 923.095 408.926 922.604 409.838C922.113 410.738 921.868 412.125 921.868 413.998ZM924.643 419.527C925.524 419.527 926.21 419.077 926.701 418.177C927.192 417.265 927.437 415.872 927.437 413.998C927.437 412.408 927.28 411.175 926.965 410.3L922.774 418.565C923.227 419.206 923.85 419.527 924.643 419.527Z" fill="url(#paint57_linear_122_130)"/>
<path d="M925.776 440.511H928.551V441.491H921.358V440.511H924.568V430.119L921.509 431.913L920.98 431.081L924.756 428.788H925.776V440.511Z" fill="url(#paint58_linear_122_130)"/>
<path d="M925.776 461.642H928.551V462.622H921.358V461.642H924.568V451.251L921.509 453.044L920.98 452.212L924.756 449.919H925.776V461.642Z" fill="url(#paint59_linear_122_130)"/>
<path d="M959.706 238.419C961.053 238.419 962.072 238.979 962.765 240.101C963.47 241.211 963.822 242.825 963.822 244.946C963.822 247.066 963.47 248.687 962.765 249.809C962.072 250.93 961.053 251.491 959.706 251.491C958.372 251.491 957.352 250.93 956.648 249.809C955.943 248.687 955.59 247.066 955.59 244.946C955.59 242.838 955.943 241.223 956.648 240.101C957.352 238.979 958.372 238.419 959.706 238.419ZM956.931 244.946C956.931 246.449 957.069 247.627 957.346 248.477L961.538 240.286C961.097 239.707 960.487 239.417 959.706 239.417C958.838 239.417 958.158 239.873 957.667 240.785C957.176 241.685 956.931 243.072 956.931 244.946ZM959.706 250.474C960.587 250.474 961.273 250.024 961.764 249.124C962.255 248.212 962.5 246.819 962.5 244.946C962.5 243.355 962.343 242.123 962.028 241.248L957.837 249.513C958.29 250.154 958.913 250.474 959.706 250.474Z" fill="url(#paint60_linear_122_130)"/>
<path d="M960.839 271.458H963.614V272.438H956.421V271.458H959.631V261.066L956.572 262.86L956.043 262.028L959.819 259.735H960.839V271.458Z" fill="url(#paint61_linear_122_130)"/>
<path d="M959.706 280.682C961.053 280.682 962.072 281.243 962.765 282.364C963.47 283.474 963.822 285.089 963.822 287.209C963.822 289.329 963.47 290.95 962.765 292.072C962.072 293.193 961.053 293.754 959.706 293.754C958.372 293.754 957.352 293.193 956.648 292.072C955.943 290.95 955.59 289.329 955.59 287.209C955.59 285.101 955.943 283.486 956.648 282.364C957.352 281.243 958.372 280.682 959.706 280.682ZM956.931 287.209C956.931 288.713 957.069 289.89 957.346 290.74L961.538 282.549C961.097 281.97 960.487 281.68 959.706 281.68C958.838 281.68 958.158 282.136 957.667 283.048C957.176 283.948 956.931 285.335 956.931 287.209ZM959.706 292.737C960.587 292.737 961.273 292.287 961.764 291.388C962.255 290.475 962.5 289.082 962.5 287.209C962.5 285.619 962.343 284.386 962.028 283.511L957.837 291.776C958.29 292.417 958.913 292.737 959.706 292.737Z" fill="url(#paint62_linear_122_130)"/>
<path d="M959.706 301.813C961.053 301.813 962.072 302.374 962.765 303.496C963.47 304.605 963.822 306.22 963.822 308.34C963.822 310.461 963.47 312.082 962.765 313.203C962.072 314.325 961.053 314.886 959.706 314.886C958.372 314.886 957.352 314.325 956.648 313.203C955.943 312.082 955.59 310.461 955.59 308.34C955.59 306.232 955.943 304.618 956.648 303.496C957.352 302.374 958.372 301.813 959.706 301.813ZM956.931 308.34C956.931 309.844 957.069 311.021 957.346 311.872L961.538 303.681C961.097 303.101 960.487 302.812 959.706 302.812C958.838 302.812 958.158 303.268 957.667 304.18C957.176 305.08 956.931 306.467 956.931 308.34ZM959.706 313.869C960.587 313.869 961.273 313.419 961.764 312.519C962.255 311.607 962.5 310.214 962.5 308.34C962.5 306.75 962.343 305.518 962.028 304.642L957.837 312.907C958.29 313.548 958.913 313.869 959.706 313.869Z" fill="url(#paint63_linear_122_130)"/>
<path d="M960.839 334.853H963.614V335.833H956.421V334.853H959.631V324.461L956.572 326.255L956.043 325.423L959.819 323.13H960.839V334.853Z" fill="url(#paint64_linear_122_130)"/>
<path d="M959.706 344.077C961.053 344.077 962.072 344.637 962.765 345.759C963.47 346.869 963.822 348.483 963.822 350.604C963.822 352.724 963.47 354.345 962.765 355.466C962.072 356.588 961.053 357.149 959.706 357.149C958.372 357.149 957.352 356.588 956.648 355.466C955.943 354.345 955.59 352.724 955.59 350.604C955.59 348.496 955.943 346.881 956.648 345.759C957.352 344.637 958.372 344.077 959.706 344.077ZM956.931 350.604C956.931 352.107 957.069 353.285 957.346 354.135L961.538 345.944C961.097 345.365 960.487 345.075 959.706 345.075C958.838 345.075 958.158 345.531 957.667 346.443C957.176 347.343 956.931 348.73 956.931 350.604ZM959.706 356.132C960.587 356.132 961.273 355.682 961.764 354.782C962.255 353.87 962.5 352.477 962.5 350.604C962.5 349.013 962.343 347.781 962.028 346.906L957.837 355.171C958.29 355.812 958.913 356.132 959.706 356.132Z" fill="url(#paint65_linear_122_130)"/>
<path d="M960.839 377.116H963.614V378.096H956.421V377.116H959.631V366.724L956.572 368.518L956.043 367.686L959.819 365.393H960.839V377.116Z" fill="url(#paint66_linear_122_130)"/>
<path d="M959.706 386.34C961.053 386.34 962.072 386.901 962.765 388.022C963.47 389.132 963.822 390.747 963.822 392.867C963.822 394.987 963.47 396.608 962.765 397.73C962.072 398.851 961.053 399.412 959.706 399.412C958.372 399.412 957.352 398.851 956.648 397.73C955.943 396.608 955.59 394.987 955.59 392.867C955.59 390.759 955.943 389.144 956.648 388.022C957.352 386.901 958.372 386.34 959.706 386.34ZM956.931 392.867C956.931 394.371 957.069 395.548 957.346 396.398L961.538 388.207C961.097 387.628 960.487 387.338 959.706 387.338C958.838 387.338 958.158 387.794 957.667 388.706C957.176 389.606 956.931 390.993 956.931 392.867ZM959.706 398.395C960.587 398.395 961.273 397.945 961.764 397.045C962.255 396.133 962.5 394.74 962.5 392.867C962.5 391.277 962.343 390.044 962.028 389.169L957.837 397.434C958.29 398.075 958.913 398.395 959.706 398.395Z" fill="url(#paint67_linear_122_130)"/>
<path d="M959.706 407.471C961.053 407.471 962.072 408.032 962.765 409.154C963.47 410.263 963.822 411.878 963.822 413.998C963.822 416.119 963.47 417.739 962.765 418.861C962.072 419.983 961.053 420.544 959.706 420.544C958.372 420.544 957.352 419.983 956.648 418.861C955.943 417.739 955.59 416.119 955.59 413.998C955.59 411.89 955.943 410.276 956.648 409.154C957.352 408.032 958.372 407.471 959.706 407.471ZM956.931 413.998C956.931 415.502 957.069 416.679 957.346 417.53L961.538 409.339C961.097 408.759 960.487 408.47 959.706 408.47C958.838 408.47 958.158 408.926 957.667 409.838C957.176 410.738 956.931 412.125 956.931 413.998ZM959.706 419.527C960.587 419.527 961.273 419.077 961.764 418.177C962.255 417.265 962.5 415.872 962.5 413.998C962.5 412.408 962.343 411.175 962.028 410.3L957.837 418.565C958.29 419.206 958.913 419.527 959.706 419.527Z" fill="url(#paint68_linear_122_130)"/>
<path d="M960.839 440.511H963.614V441.491H956.421V440.511H959.631V430.119L956.572 431.913L956.043 431.081L959.819 428.788H960.839V440.511Z" fill="url(#paint69_linear_122_130)"/>
<path d="M959.706 449.734C961.053 449.734 962.072 450.295 962.765 451.417C963.47 452.526 963.822 454.141 963.822 456.261C963.822 458.382 963.47 460.003 962.765 461.124C962.072 462.246 961.053 462.807 959.706 462.807C958.372 462.807 957.352 462.246 956.648 461.124C955.943 460.003 955.59 458.382 955.59 456.261C955.59 454.154 955.943 452.539 956.648 451.417C957.352 450.295 958.372 449.734 959.706 449.734ZM956.931 456.261C956.931 457.765 957.069 458.943 957.346 459.793L961.538 451.602C961.097 451.023 960.487 450.733 959.706 450.733C958.838 450.733 958.158 451.189 957.667 452.101C957.176 453.001 956.931 454.388 956.931 456.261ZM959.706 461.79C960.587 461.79 961.273 461.34 961.764 460.44C962.255 459.528 962.5 458.135 962.5 456.261C962.5 454.671 962.343 453.439 962.028 452.563L957.837 460.829C958.29 461.47 958.913 461.79 959.706 461.79Z" fill="url(#paint70_linear_122_130)"/>
<path d="M960.839 482.774H963.614V483.754H956.421V482.774H959.631V472.382L956.572 474.176L956.043 473.344L959.819 471.051H960.839V482.774Z" fill="url(#paint71_linear_122_130)"/>
<path d="M960.839 503.905H963.614V504.885H956.421V503.905H959.631V493.514L956.572 495.307L956.043 494.475L959.819 492.183H960.839V503.905Z" fill="url(#paint72_linear_122_130)"/>
<path d="M907.111 259.55C908.458 259.55 909.478 260.111 910.17 261.233C910.875 262.342 911.227 263.957 911.227 266.077C911.227 268.197 910.875 269.818 910.17 270.94C909.478 272.062 908.458 272.623 907.111 272.623C905.777 272.623 904.758 272.062 904.053 270.94C903.348 269.818 902.996 268.197 902.996 266.077C902.996 263.969 903.348 262.355 904.053 261.233C904.758 260.111 905.777 259.55 907.111 259.55ZM904.336 266.077C904.336 267.581 904.475 268.758 904.751 269.609L908.943 261.418C908.502 260.838 907.892 260.549 907.111 260.549C906.243 260.549 905.563 261.005 905.072 261.917C904.582 262.817 904.336 264.204 904.336 266.077ZM907.111 271.606C907.993 271.606 908.679 271.156 909.169 270.256C909.66 269.344 909.906 267.951 909.906 266.077C909.906 264.487 909.748 263.254 909.434 262.379L905.242 270.644C905.695 271.285 906.319 271.606 907.111 271.606Z" fill="url(#paint73_linear_122_130)"/>
<path d="M907.111 280.682C908.458 280.682 909.478 281.243 910.17 282.364C910.875 283.474 911.227 285.089 911.227 287.209C911.227 289.329 910.875 290.95 910.17 292.072C909.478 293.193 908.458 293.754 907.111 293.754C905.777 293.754 904.758 293.193 904.053 292.072C903.348 290.95 902.996 289.329 902.996 287.209C902.996 285.101 903.348 283.486 904.053 282.364C904.758 281.243 905.777 280.682 907.111 280.682ZM904.336 287.209C904.336 288.713 904.475 289.89 904.751 290.74L908.943 282.549C908.502 281.97 907.892 281.68 907.111 281.68C906.243 281.68 905.563 282.136 905.072 283.048C904.582 283.948 904.336 285.335 904.336 287.209ZM907.111 292.737C907.993 292.737 908.679 292.287 909.169 291.388C909.66 290.475 909.906 289.082 909.906 287.209C909.906 285.619 909.748 284.386 909.434 283.511L905.242 291.776C905.695 292.417 906.319 292.737 907.111 292.737Z" fill="url(#paint74_linear_122_130)"/>
<path d="M908.244 313.721H911.02V314.701H903.826V313.721H907.036V303.33L903.977 305.123L903.449 304.291L907.225 301.998H908.244V313.721Z" fill="url(#paint75_linear_122_130)"/>
<path d="M907.111 322.945C908.458 322.945 909.478 323.506 910.17 324.628C910.875 325.737 911.227 327.352 911.227 329.472C911.227 331.592 910.875 333.213 910.17 334.335C909.478 335.457 908.458 336.017 907.111 336.017C905.777 336.017 904.758 335.457 904.053 334.335C903.348 333.213 902.996 331.592 902.996 329.472C902.996 327.364 903.348 325.749 904.053 324.628C904.758 323.506 905.777 322.945 907.111 322.945ZM904.336 329.472C904.336 330.976 904.475 332.153 904.751 333.004L908.943 324.812C908.502 324.233 907.892 323.943 907.111 323.943C906.243 323.943 905.563 324.399 905.072 325.312C904.582 326.212 904.336 327.598 904.336 329.472ZM907.111 335.001C907.993 335.001 908.679 334.551 909.169 333.651C909.66 332.739 909.906 331.346 909.906 329.472C909.906 327.882 909.748 326.649 909.434 325.774L905.242 334.039C905.695 334.68 906.319 335.001 907.111 335.001Z" fill="url(#paint76_linear_122_130)"/>
<path d="M908.244 355.984H911.02V356.964H903.826V355.984H907.036V345.593L903.977 347.386L903.449 346.554L907.225 344.261H908.244V355.984Z" fill="url(#paint77_linear_122_130)"/>
<path d="M908.244 377.116H911.02V378.096H903.826V377.116H907.036V366.724L903.977 368.518L903.449 367.686L907.225 365.393H908.244V377.116Z" fill="url(#paint78_linear_122_130)"/>
<path d="M943.307 229.195H946.083V230.175H938.889V229.195H942.099V218.803L939.04 220.597L938.512 219.765L942.288 217.472H943.307V229.195Z" fill="url(#paint79_linear_122_130)"/>
<path d="M942.175 238.419C943.521 238.419 944.541 238.979 945.233 240.101C945.938 241.211 946.29 242.825 946.29 244.946C946.29 247.066 945.938 248.687 945.233 249.809C944.541 250.93 943.521 251.491 942.175 251.491C940.84 251.491 939.821 250.93 939.116 249.809C938.411 248.687 938.059 247.066 938.059 244.946C938.059 242.838 938.411 241.223 939.116 240.101C939.821 238.979 940.84 238.419 942.175 238.419ZM939.399 244.946C939.399 246.449 939.538 247.627 939.815 248.477L944.006 240.286C943.565 239.707 942.955 239.417 942.175 239.417C941.306 239.417 940.626 239.873 940.136 240.785C939.645 241.685 939.399 243.072 939.399 244.946ZM942.175 250.474C943.056 250.474 943.742 250.024 944.233 249.124C944.723 248.212 944.969 246.819 944.969 244.946C944.969 243.355 944.812 242.123 944.497 241.248L940.305 249.513C940.759 250.154 941.382 250.474 942.175 250.474Z" fill="url(#paint80_linear_122_130)"/>
<path d="M943.307 271.458H946.083V272.438H938.889V271.458H942.099V261.066L939.04 262.86L938.512 262.028L942.288 259.735H943.307V271.458Z" fill="url(#paint81_linear_122_130)"/>
<path d="M943.307 292.589H946.083V293.569H938.889V292.589H942.099V282.198L939.04 283.991L938.512 283.159L942.288 280.867H943.307V292.589Z" fill="url(#paint82_linear_122_130)"/>
<path d="M942.175 301.813C943.521 301.813 944.541 302.374 945.233 303.496C945.938 304.605 946.29 306.22 946.29 308.34C946.29 310.461 945.938 312.082 945.233 313.203C944.541 314.325 943.521 314.886 942.175 314.886C940.84 314.886 939.821 314.325 939.116 313.203C938.411 312.082 938.059 310.461 938.059 308.34C938.059 306.232 938.411 304.618 939.116 303.496C939.821 302.374 940.84 301.813 942.175 301.813ZM939.399 308.34C939.399 309.844 939.538 311.021 939.815 311.872L944.006 303.681C943.565 303.101 942.955 302.812 942.175 302.812C941.306 302.812 940.626 303.268 940.136 304.18C939.645 305.08 939.399 306.467 939.399 308.34ZM942.175 313.869C943.056 313.869 943.742 313.419 944.233 312.519C944.723 311.607 944.969 310.214 944.969 308.34C944.969 306.75 944.812 305.518 944.497 304.642L940.305 312.907C940.759 313.548 941.382 313.869 942.175 313.869Z" fill="url(#paint83_linear_122_130)"/>
<path d="M943.307 334.853H946.083V335.833H938.889V334.853H942.099V324.461L939.04 326.255L938.512 325.423L942.288 323.13H943.307V334.853Z" fill="url(#paint84_linear_122_130)"/>
<path d="M943.307 355.984H946.083V356.964H938.889V355.984H942.099V345.593L939.04 347.386L938.512 346.554L942.288 344.261H943.307V355.984Z" fill="url(#paint85_linear_122_130)"/>
<path d="M942.175 365.208C943.521 365.208 944.541 365.769 945.233 366.891C945.938 368 946.29 369.615 946.29 371.735C946.29 373.855 945.938 375.476 945.233 376.598C944.541 377.72 943.521 378.281 942.175 378.281C940.84 378.281 939.821 377.72 939.116 376.598C938.411 375.476 938.059 373.855 938.059 371.735C938.059 369.627 938.411 368.012 939.116 366.891C939.821 365.769 940.84 365.208 942.175 365.208ZM939.399 371.735C939.399 373.239 939.538 374.416 939.815 375.267L944.006 367.076C943.565 366.496 942.955 366.207 942.175 366.207C941.306 366.207 940.626 366.663 940.136 367.575C939.645 368.475 939.399 369.861 939.399 371.735ZM942.175 377.264C943.056 377.264 943.742 376.814 944.233 375.914C944.723 375.002 944.969 373.609 944.969 371.735C944.969 370.145 944.812 368.912 944.497 368.037L940.305 376.302C940.759 376.943 941.382 377.264 942.175 377.264Z" fill="url(#paint86_linear_122_130)"/>
<path d="M943.307 398.247H946.083V399.227H938.889V398.247H942.099V387.856L939.04 389.649L938.512 388.817L942.288 386.525H943.307V398.247Z" fill="url(#paint87_linear_122_130)"/>
<path d="M942.175 407.471C943.521 407.471 944.541 408.032 945.233 409.154C945.938 410.263 946.29 411.878 946.29 413.998C946.29 416.119 945.938 417.739 945.233 418.861C944.541 419.983 943.521 420.544 942.175 420.544C940.84 420.544 939.821 419.983 939.116 418.861C938.411 417.739 938.059 416.119 938.059 413.998C938.059 411.89 938.411 410.276 939.116 409.154C939.821 408.032 940.84 407.471 942.175 407.471ZM939.399 413.998C939.399 415.502 939.538 416.679 939.815 417.53L944.006 409.339C943.565 408.759 942.955 408.47 942.175 408.47C941.306 408.47 940.626 408.926 940.136 409.838C939.645 410.738 939.399 412.125 939.399 413.998ZM942.175 419.527C943.056 419.527 943.742 419.077 944.233 418.177C944.723 417.265 944.969 415.872 944.969 413.998C944.969 412.408 944.812 411.175 944.497 410.3L940.305 418.565C940.759 419.206 941.382 419.527 942.175 419.527Z" fill="url(#paint88_linear_122_130)"/>
<path d="M977.238 217.287C978.584 217.287 979.604 217.848 980.296 218.97C981.001 220.079 981.354 221.694 981.354 223.814C981.354 225.934 981.001 227.555 980.296 228.677C979.604 229.799 978.584 230.36 977.238 230.36C975.904 230.36 974.884 229.799 974.179 228.677C973.474 227.555 973.122 225.934 973.122 223.814C973.122 221.706 973.474 220.091 974.179 218.97C974.884 217.848 975.904 217.287 977.238 217.287ZM974.462 223.814C974.462 225.318 974.601 226.495 974.878 227.346L979.069 219.154C978.629 218.575 978.018 218.285 977.238 218.285C976.369 218.285 975.69 218.742 975.199 219.654C974.708 220.554 974.462 221.94 974.462 223.814ZM977.238 229.343C978.119 229.343 978.805 228.893 979.296 227.993C979.787 227.081 980.032 225.688 980.032 223.814C980.032 222.224 979.875 220.991 979.56 220.116L975.369 228.381C975.822 229.022 976.445 229.343 977.238 229.343Z" fill="url(#paint89_linear_122_130)"/>
<path d="M978.371 250.326H981.146V251.306H973.953V250.326H977.162V239.935L974.104 241.728L973.575 240.896L977.351 238.603H978.371V250.326Z" fill="url(#paint90_linear_122_130)"/>
<path d="M978.371 271.458H981.146V272.438H973.953V271.458H977.162V261.066L974.104 262.86L973.575 262.028L977.351 259.735H978.371V271.458Z" fill="url(#paint91_linear_122_130)"/>
<path d="M977.238 280.682C978.584 280.682 979.604 281.243 980.296 282.364C981.001 283.474 981.354 285.089 981.354 287.209C981.354 289.329 981.001 290.95 980.296 292.072C979.604 293.193 978.584 293.754 977.238 293.754C975.904 293.754 974.884 293.193 974.179 292.072C973.474 290.95 973.122 289.329 973.122 287.209C973.122 285.101 973.474 283.486 974.179 282.364C974.884 281.243 975.904 280.682 977.238 280.682ZM974.462 287.209C974.462 288.713 974.601 289.89 974.878 290.74L979.069 282.549C978.629 281.97 978.018 281.68 977.238 281.68C976.369 281.68 975.69 282.136 975.199 283.048C974.708 283.948 974.462 285.335 974.462 287.209ZM977.238 292.737C978.119 292.737 978.805 292.287 979.296 291.388C979.787 290.475 980.032 289.082 980.032 287.209C980.032 285.619 979.875 284.386 979.56 283.511L975.369 291.776C975.822 292.417 976.445 292.737 977.238 292.737Z" fill="url(#paint92_linear_122_130)"/>
<path d="M977.238 301.813C978.584 301.813 979.604 302.374 980.296 303.496C981.001 304.605 981.354 306.22 981.354 308.34C981.354 310.461 981.001 312.082 980.296 313.203C979.604 314.325 978.584 314.886 977.238 314.886C975.904 314.886 974.884 314.325 974.179 313.203C973.474 312.082 973.122 310.461 973.122 308.34C973.122 306.232 973.474 304.618 974.179 303.496C974.884 302.374 975.904 301.813 977.238 301.813ZM974.462 308.34C974.462 309.844 974.601 311.021 974.878 311.872L979.069 303.681C978.629 303.101 978.018 302.812 977.238 302.812C976.369 302.812 975.69 303.268 975.199 304.18C974.708 305.08 974.462 306.467 974.462 308.34ZM977.238 313.869C978.119 313.869 978.805 313.419 979.296 312.519C979.787 311.607 980.032 310.214 980.032 308.34C980.032 306.75 979.875 305.518 979.56 304.642L975.369 312.907C975.822 313.548 976.445 313.869 977.238 313.869Z" fill="url(#paint93_linear_122_130)"/>
</g>
</g>
<defs>
<filter id="filter0_f_122_130" x="-493.19" y="-469.19" width="2066.38" height="1449.36" filterUnits="userSpaceOnUse" color-interpolation-filters="sRGB">
<feFlood flood-opacity="0" result="BackgroundImageFix"/>
<feBlend mode="normal" in="SourceGraphic" in2="BackgroundImageFix" result="shape"/>
<feGaussianBlur stdDeviation="200.095" result="effect1_foregroundBlur_122_130"/>
</filter>
<linearGradient id="paint0_linear_122_130" x1="105.727" y1="474.29" x2="105.727" y2="762.977" gradientUnits="userSpaceOnUse">
<stop stop-color="#F7DD43"/>
<stop offset="1" stop-color="#F7DD43" stop-opacity="0"/>
</linearGradient>
<linearGradient id="paint1_linear_122_130" x1="105.727" y1="474.29" x2="105.727" y2="762.977" gradientUnits="userSpaceOnUse">
<stop stop-color="#F7DD43"/>
<stop offset="1" stop-color="#F7DD43" stop-opacity="0"/>
</linearGradient>
<linearGradient id="paint2_linear_122_130" x1="105.727" y1="474.29" x2="105.727" y2="762.977" gradientUnits="userSpaceOnUse">
<stop stop-color="#F7DD43"/>
<stop offset="1" stop-color="#F7DD43" stop-opacity="0"/>
</linearGradient>
<linearGradient id="paint3_linear_122_130" x1="105.727" y1="474.29" x2="105.727" y2="762.977" gradientUnits="userSpaceOnUse">
<stop stop-color="#F7DD43"/>
<stop offset="1" stop-color="#F7DD43" stop-opacity="0"/>
</linearGradient>
<linearGradient id="paint4_linear_122_130" x1="105.727" y1="474.29" x2="105.727" y2="762.977" gradientUnits="userSpaceOnUse">
<stop stop-color="#F7DD43"/>
<stop offset="1" stop-color="#F7DD43" stop-opacity="0"/>
</linearGradient>
<linearGradient id="paint5_linear_122_130" x1="105.727" y1="474.29" x2="105.727" y2="762.977" gradientUnits="userSpaceOnUse">
<stop stop-color="#F7DD43"/>
<stop offset="1" stop-color="#F7DD43" stop-opacity="0"/>
</linearGradient>
<linearGradient id="paint6_linear_122_130" x1="105.727" y1="474.29" x2="105.727" y2="762.977" gradientUnits="userSpaceOnUse">
<stop stop-color="#F7DD43"/>
<stop offset="1" stop-color="#F7DD43" stop-opacity="0"/>
</linearGradient>
<linearGradient id="paint7_linear_122_130" x1="105.727" y1="474.29" x2="105.727" y2="762.977" gradientUnits="userSpaceOnUse">
<stop stop-color="#F7DD43"/>
<stop offset="1" stop-color="#F7DD43" stop-opacity="0"/>
</linearGradient>
<linearGradient id="paint8_linear_122_130" x1="105.727" y1="474.29" x2="105.727" y2="762.977" gradientUnits="userSpaceOnUse">
<stop stop-color="#F7DD43"/>
<stop offset="1" stop-color="#F7DD43" stop-opacity="0"/>
</linearGradient>
<linearGradient id="paint9_linear_122_130" x1="105.727" y1="474.29" x2="105.727" y2="762.977" gradientUnits="userSpaceOnUse">
<stop stop-color="#F7DD43"/>
<stop offset="1" stop-color="#F7DD43" stop-opacity="0"/>
</linearGradient>
<linearGradient id="paint10_linear_122_130" x1="105.727" y1="474.29" x2="105.727" y2="762.977" gradientUnits="userSpaceOnUse">
<stop stop-color="#F7DD43"/>
<stop offset="1" stop-color="#F7DD43" stop-opacity="0"/>
</linearGradient>
<linearGradient id="paint11_linear_122_130" x1="105.727" y1="474.29" x2="105.727" y2="762.977" gradientUnits="userSpaceOnUse">
<stop stop-color="#F7DD43"/>
<stop offset="1" stop-color="#F7DD43" stop-opacity="0"/>
</linearGradient>
<linearGradient id="paint12_linear_122_130" x1="105.727" y1="474.29" x2="105.727" y2="762.977" gradientUnits="userSpaceOnUse">
<stop stop-color="#F7DD43"/>
<stop offset="1" stop-color="#F7DD43" stop-opacity="0"/>
</linearGradient>
<linearGradient id="paint13_linear_122_130" x1="105.727" y1="474.29" x2="105.727" y2="762.977" gradientUnits="userSpaceOnUse">
<stop stop-color="#F7DD43"/>
<stop offset="1" stop-color="#F7DD43" stop-opacity="0"/>
</linearGradient>
<linearGradient id="paint14_linear_122_130" x1="105.727" y1="474.29" x2="105.727" y2="762.977" gradientUnits="userSpaceOnUse">
<stop stop-color="#F7DD43"/>
<stop offset="1" stop-color="#F7DD43" stop-opacity="0"/>
</linearGradient>
<linearGradient id="paint15_linear_122_130" x1="105.727" y1="474.29" x2="105.727" y2="762.977" gradientUnits="userSpaceOnUse">
<stop stop-color="#F7DD43"/>
<stop offset="1" stop-color="#F7DD43" stop-opacity="0"/>
</linearGradient>
<linearGradient id="paint16_linear_122_130" x1="105.727" y1="474.29" x2="105.727" y2="762.977" gradientUnits="userSpaceOnUse">
<stop stop-color="#F7DD43"/>
<stop offset="1" stop-color="#F7DD43" stop-opacity="0"/>
</linearGradient>
<linearGradient id="paint17_linear_122_130" x1="105.727" y1="474.29" x2="105.727" y2="762.977" gradientUnits="userSpaceOnUse">
<stop stop-color="#F7DD43"/>
<stop offset="1" stop-color="#F7DD43" stop-opacity="0"/>
</linearGradient>
<linearGradient id="paint18_linear_122_130" x1="105.727" y1="474.29" x2="105.727" y2="762.977" gradientUnits="userSpaceOnUse">
<stop stop-color="#F7DD43"/>
<stop offset="1" stop-color="#F7DD43" stop-opacity="0"/>
</linearGradient>
<linearGradient id="paint19_linear_122_130" x1="105.727" y1="474.29" x2="105.727" y2="762.977" gradientUnits="userSpaceOnUse">
<stop stop-color="#F7DD43"/>
<stop offset="1" stop-color="#F7DD43" stop-opacity="0"/>
</linearGradient>
<linearGradient id="paint20_linear_122_130" x1="105.727" y1="474.29" x2="105.727" y2="762.977" gradientUnits="userSpaceOnUse">
<stop stop-color="#F7DD43"/>
<stop offset="1" stop-color="#F7DD43" stop-opacity="0"/>
</linearGradient>
<linearGradient id="paint21_linear_122_130" x1="105.727" y1="474.29" x2="105.727" y2="762.977" gradientUnits="userSpaceOnUse">
<stop stop-color="#F7DD43"/>
<stop offset="1" stop-color="#F7DD43" stop-opacity="0"/>
</linearGradient>
<linearGradient id="paint22_linear_122_130" x1="105.727" y1="474.29" x2="105.727" y2="762.977" gradientUnits="userSpaceOnUse">
<stop stop-color="#F7DD43"/>
<stop offset="1" stop-color="#F7DD43" stop-opacity="0"/>
</linearGradient>
<linearGradient id="paint23_linear_122_130" x1="105.727" y1="474.29" x2="105.727" y2="762.977" gradientUnits="userSpaceOnUse">
<stop stop-color="#F7DD43"/>
<stop offset="1" stop-color="#F7DD43" stop-opacity="0"/>
</linearGradient>
<linearGradient id="paint24_linear_122_130" x1="105.727" y1="474.29" x2="105.727" y2="762.977" gradientUnits="userSpaceOnUse">
<stop stop-color="#F7DD43"/>
<stop offset="1" stop-color="#F7DD43" stop-opacity="0"/>
</linearGradient>
<linearGradient id="paint25_linear_122_130" x1="105.727" y1="474.29" x2="105.727" y2="762.977" gradientUnits="userSpaceOnUse">
<stop stop-color="#F7DD43"/>
<stop offset="1" stop-color="#F7DD43" stop-opacity="0"/>
</linearGradient>
<linearGradient id="paint26_linear_122_130" x1="105.727" y1="474.29" x2="105.727" y2="762.977" gradientUnits="userSpaceOnUse">
<stop stop-color="#F7DD43"/>
<stop offset="1" stop-color="#F7DD43" stop-opacity="0"/>
</linearGradient>
<linearGradient id="paint27_linear_122_130" x1="105.727" y1="474.29" x2="105.727" y2="762.977" gradientUnits="userSpaceOnUse">
<stop stop-color="#F7DD43"/>
<stop offset="1" stop-color="#F7DD43" stop-opacity="0"/>
</linearGradient>
<linearGradient id="paint28_linear_122_130" x1="105.727" y1="474.29" x2="105.727" y2="762.977" gradientUnits="userSpaceOnUse">
<stop stop-color="#F7DD43"/>
<stop offset="1" stop-color="#F7DD43" stop-opacity="0"/>
</linearGradient>
<linearGradient id="paint29_linear_122_130" x1="105.727" y1="474.29" x2="105.727" y2="762.977" gradientUnits="userSpaceOnUse">
<stop stop-color="#F7DD43"/>
<stop offset="1" stop-color="#F7DD43" stop-opacity="0"/>
</linearGradient>
<linearGradient id="paint30_linear_122_130" x1="105.727" y1="474.29" x2="105.727" y2="762.977" gradientUnits="userSpaceOnUse">
<stop stop-color="#F7DD43"/>
<stop offset="1" stop-color="#F7DD43" stop-opacity="0"/>
</linearGradient>
<linearGradient id="paint31_linear_122_130" x1="105.727" y1="474.29" x2="105.727" y2="762.977" gradientUnits="userSpaceOnUse">
<stop stop-color="#F7DD43"/>
<stop offset="1" stop-color="#F7DD43" stop-opacity="0"/>
</linearGradient>
<linearGradient id="paint32_linear_122_130" x1="105.727" y1="474.29" x2="105.727" y2="762.977" gradientUnits="userSpaceOnUse">
<stop stop-color="#F7DD43"/>
<stop offset="1" stop-color="#F7DD43" stop-opacity="0"/>
</linearGradient>
<linearGradient id="paint33_linear_122_130" x1="105.727" y1="474.29" x2="105.727" y2="762.977" gradientUnits="userSpaceOnUse">
<stop stop-color="#F7DD43"/>
<stop offset="1" stop-color="#F7DD43" stop-opacity="0"/>
</linearGradient>
<linearGradient id="paint34_linear_122_130" x1="105.727" y1="474.29" x2="105.727" y2="762.977" gradientUnits="userSpaceOnUse">
<stop stop-color="#F7DD43"/>
<stop offset="1" stop-color="#F7DD43" stop-opacity="0"/>
</linearGradient>
<linearGradient id="paint35_linear_122_130" x1="105.727" y1="474.29" x2="105.727" y2="762.977" gradientUnits="userSpaceOnUse">
<stop stop-color="#F7DD43"/>
<stop offset="1" stop-color="#F7DD43" stop-opacity="0"/>
</linearGradient>
<linearGradient id="paint36_linear_122_130" x1="105.727" y1="474.29" x2="105.727" y2="762.977" gradientUnits="userSpaceOnUse">
<stop stop-color="#F7DD43"/>
<stop offset="1" stop-color="#F7DD43" stop-opacity="0"/>
</linearGradient>
<linearGradient id="paint37_linear_122_130" x1="105.727" y1="474.29" x2="105.727" y2="762.977" gradientUnits="userSpaceOnUse">
<stop stop-color="#F7DD43"/>
<stop offset="1" stop-color="#F7DD43" stop-opacity="0"/>
</linearGradient>
<linearGradient id="paint38_linear_122_130" x1="105.727" y1="474.29" x2="105.727" y2="762.977" gradientUnits="userSpaceOnUse">
<stop stop-color="#F7DD43"/>
<stop offset="1" stop-color="#F7DD43" stop-opacity="0"/>
</linearGradient>
<linearGradient id="paint39_linear_122_130" x1="105.727" y1="474.29" x2="105.727" y2="762.977" gradientUnits="userSpaceOnUse">
<stop stop-color="#F7DD43"/>
<stop offset="1" stop-color="#F7DD43" stop-opacity="0"/>
</linearGradient>
<linearGradient id="paint40_linear_122_130" x1="105.727" y1="474.29" x2="105.727" y2="762.977" gradientUnits="userSpaceOnUse">
<stop stop-color="#F7DD43"/>
<stop offset="1" stop-color="#F7DD43" stop-opacity="0"/>
</linearGradient>
<linearGradient id="paint41_linear_122_130" x1="105.727" y1="474.29" x2="105.727" y2="762.977" gradientUnits="userSpaceOnUse">
<stop stop-color="#F7DD43"/>
<stop offset="1" stop-color="#F7DD43" stop-opacity="0"/>
</linearGradient>
<linearGradient id="paint42_linear_122_130" x1="105.727" y1="474.29" x2="105.727" y2="762.977" gradientUnits="userSpaceOnUse">
<stop stop-color="#F7DD43"/>
<stop offset="1" stop-color="#F7DD43" stop-opacity="0"/>
</linearGradient>
<linearGradient id="paint43_linear_122_130" x1="105.727" y1="474.29" x2="105.727" y2="762.977" gradientUnits="userSpaceOnUse">
<stop stop-color="#F7DD43"/>
<stop offset="1" stop-color="#F7DD43" stop-opacity="0"/>
</linearGradient>
<linearGradient id="paint44_linear_122_130" x1="105.727" y1="474.29" x2="105.727" y2="762.977" gradientUnits="userSpaceOnUse">
<stop stop-color="#F7DD43"/>
<stop offset="1" stop-color="#F7DD43" stop-opacity="0"/>
</linearGradient>
<linearGradient id="paint45_linear_122_130" x1="105.727" y1="474.29" x2="105.727" y2="762.977" gradientUnits="userSpaceOnUse">
<stop stop-color="#F7DD43"/>
<stop offset="1" stop-color="#F7DD43" stop-opacity="0"/>
</linearGradient>
<linearGradient id="paint46_linear_122_130" x1="105.727" y1="474.29" x2="105.727" y2="762.977" gradientUnits="userSpaceOnUse">
<stop stop-color="#F7DD43"/>
<stop offset="1" stop-color="#F7DD43" stop-opacity="0"/>
</linearGradient>
<linearGradient id="paint47_linear_122_130" x1="942.175" y1="196.155" x2="942.175" y2="473.194" gradientUnits="userSpaceOnUse">
<stop stop-color="#F7DD43"/>
<stop offset="1" stop-color="#F7DD43" stop-opacity="0"/>
</linearGradient>
<linearGradient id="paint48_linear_122_130" x1="942.175" y1="196.155" x2="942.175" y2="473.194" gradientUnits="userSpaceOnUse">
<stop stop-color="#F7DD43"/>
<stop offset="1" stop-color="#F7DD43" stop-opacity="0"/>
</linearGradient>
<linearGradient id="paint49_linear_122_130" x1="942.175" y1="196.155" x2="942.175" y2="473.194" gradientUnits="userSpaceOnUse">
<stop stop-color="#F7DD43"/>
<stop offset="1" stop-color="#F7DD43" stop-opacity="0"/>
</linearGradient>
<linearGradient id="paint50_linear_122_130" x1="942.175" y1="196.155" x2="942.175" y2="473.194" gradientUnits="userSpaceOnUse">
<stop stop-color="#F7DD43"/>
<stop offset="1" stop-color="#F7DD43" stop-opacity="0"/>
</linearGradient>
<linearGradient id="paint51_linear_122_130" x1="942.175" y1="196.155" x2="942.175" y2="473.194" gradientUnits="userSpaceOnUse">
<stop stop-color="#F7DD43"/>
<stop offset="1" stop-color="#F7DD43" stop-opacity="0"/>
</linearGradient>
<linearGradient id="paint52_linear_122_130" x1="942.175" y1="196.155" x2="942.175" y2="473.194" gradientUnits="userSpaceOnUse">
<stop stop-color="#F7DD43"/>
<stop offset="1" stop-color="#F7DD43" stop-opacity="0"/>
</linearGradient>
<linearGradient id="paint53_linear_122_130" x1="942.175" y1="196.155" x2="942.175" y2="473.194" gradientUnits="userSpaceOnUse">
<stop stop-color="#F7DD43"/>
<stop offset="1" stop-color="#F7DD43" stop-opacity="0"/>
</linearGradient>
<linearGradient id="paint54_linear_122_130" x1="942.175" y1="196.155" x2="942.175" y2="473.194" gradientUnits="userSpaceOnUse">
<stop stop-color="#F7DD43"/>
<stop offset="1" stop-color="#F7DD43" stop-opacity="0"/>
</linearGradient>
<linearGradient id="paint55_linear_122_130" x1="942.175" y1="196.155" x2="942.175" y2="473.194" gradientUnits="userSpaceOnUse">
<stop stop-color="#F7DD43"/>
<stop offset="1" stop-color="#F7DD43" stop-opacity="0"/>
</linearGradient>
<linearGradient id="paint56_linear_122_130" x1="942.175" y1="196.155" x2="942.175" y2="473.194" gradientUnits="userSpaceOnUse">
<stop stop-color="#F7DD43"/>
<stop offset="1" stop-color="#F7DD43" stop-opacity="0"/>
</linearGradient>
<linearGradient id="paint57_linear_122_130" x1="942.175" y1="196.155" x2="942.175" y2="473.194" gradientUnits="userSpaceOnUse">
<stop stop-color="#F7DD43"/>
<stop offset="1" stop-color="#F7DD43" stop-opacity="0"/>
</linearGradient>
<linearGradient id="paint58_linear_122_130" x1="942.175" y1="196.155" x2="942.175" y2="473.194" gradientUnits="userSpaceOnUse">
<stop stop-color="#F7DD43"/>
<stop offset="1" stop-color="#F7DD43" stop-opacity="0"/>
</linearGradient>
<linearGradient id="paint59_linear_122_130" x1="942.175" y1="196.155" x2="942.175" y2="473.194" gradientUnits="userSpaceOnUse">
<stop stop-color="#F7DD43"/>
<stop offset="1" stop-color="#F7DD43" stop-opacity="0"/>
</linearGradient>
<linearGradient id="paint60_linear_122_130" x1="942.175" y1="196.155" x2="942.175" y2="473.194" gradientUnits="userSpaceOnUse">
<stop stop-color="#F7DD43"/>
<stop offset="1" stop-color="#F7DD43" stop-opacity="0"/>
</linearGradient>
<linearGradient id="paint61_linear_122_130" x1="942.175" y1="196.155" x2="942.175" y2="473.194" gradientUnits="userSpaceOnUse">
<stop stop-color="#F7DD43"/>
<stop offset="1" stop-color="#F7DD43" stop-opacity="0"/>
</linearGradient>
<linearGradient id="paint62_linear_122_130" x1="942.175" y1="196.155" x2="942.175" y2="473.194" gradientUnits="userSpaceOnUse">
<stop stop-color="#F7DD43"/>
<stop offset="1" stop-color="#F7DD43" stop-opacity="0"/>
</linearGradient>
<linearGradient id="paint63_linear_122_130" x1="942.175" y1="196.155" x2="942.175" y2="473.194" gradientUnits="userSpaceOnUse">
<stop stop-color="#F7DD43"/>
<stop offset="1" stop-color="#F7DD43" stop-opacity="0"/>
</linearGradient>
<linearGradient id="paint64_linear_122_130" x1="942.175" y1="196.155" x2="942.175" y2="473.194" gradientUnits="userSpaceOnUse">
<stop stop-color="#F7DD43"/>
<stop offset="1" stop-color="#F7DD43" stop-opacity="0"/>
</linearGradient>
<linearGradient id="paint65_linear_122_130" x1="942.175" y1="196.155" x2="942.175" y2="473.194" gradientUnits="userSpaceOnUse">
<stop stop-color="#F7DD43"/>
<stop offset="1" stop-color="#F7DD43" stop-opacity="0"/>
</linearGradient>
<linearGradient id="paint66_linear_122_130" x1="942.175" y1="196.155" x2="942.175" y2="473.194" gradientUnits="userSpaceOnUse">
<stop stop-color="#F7DD43"/>
<stop offset="1" stop-color="#F7DD43" stop-opacity="0"/>
</linearGradient>
<linearGradient id="paint67_linear_122_130" x1="942.175" y1="196.155" x2="942.175" y2="473.194" gradientUnits="userSpaceOnUse">
<stop stop-color="#F7DD43"/>
<stop offset="1" stop-color="#F7DD43" stop-opacity="0"/>
</linearGradient>
<linearGradient id="paint68_linear_122_130" x1="942.175" y1="196.155" x2="942.175" y2="473.194" gradientUnits="userSpaceOnUse">
<stop stop-color="#F7DD43"/>
<stop offset="1" stop-color="#F7DD43" stop-opacity="0"/>
</linearGradient>
<linearGradient id="paint69_linear_122_130" x1="942.175" y1="196.155" x2="942.175" y2="473.194" gradientUnits="userSpaceOnUse">
<stop stop-color="#F7DD43"/>
<stop offset="1" stop-color="#F7DD43" stop-opacity="0"/>
</linearGradient>
<linearGradient id="paint70_linear_122_130" x1="942.175" y1="196.155" x2="942.175" y2="473.194" gradientUnits="userSpaceOnUse">
<stop stop-color="#F7DD43"/>
<stop offset="1" stop-color="#F7DD43" stop-opacity="0"/>
</linearGradient>
<linearGradient id="paint71_linear_122_130" x1="942.175" y1="196.155" x2="942.175" y2="473.194" gradientUnits="userSpaceOnUse">
<stop stop-color="#F7DD43"/>
<stop offset="1" stop-color="#F7DD43" stop-opacity="0"/>
</linearGradient>
<linearGradient id="paint72_linear_122_130" x1="942.175" y1="196.155" x2="942.175" y2="473.194" gradientUnits="userSpaceOnUse">
<stop stop-color="#F7DD43"/>
<stop offset="1" stop-color="#F7DD43" stop-opacity="0"/>
</linearGradient>
<linearGradient id="paint73_linear_122_130" x1="942.175" y1="196.155" x2="942.175" y2="473.194" gradientUnits="userSpaceOnUse">
<stop stop-color="#F7DD43"/>
<stop offset="1" stop-color="#F7DD43" stop-opacity="0"/>
</linearGradient>
<linearGradient id="paint74_linear_122_130" x1="942.175" y1="196.155" x2="942.175" y2="473.194" gradientUnits="userSpaceOnUse">
<stop stop-color="#F7DD43"/>
<stop offset="1" stop-color="#F7DD43" stop-opacity="0"/>
</linearGradient>
<linearGradient id="paint75_linear_122_130" x1="942.175" y1="196.155" x2="942.175" y2="473.194" gradientUnits="userSpaceOnUse">
<stop stop-color="#F7DD43"/>
<stop offset="1" stop-color="#F7DD43" stop-opacity="0"/>
</linearGradient>
<linearGradient id="paint76_linear_122_130" x1="942.175" y1="196.155" x2="942.175" y2="473.194" gradientUnits="userSpaceOnUse">
<stop stop-color="#F7DD43"/>
<stop offset="1" stop-color="#F7DD43" stop-opacity="0"/>
</linearGradient>
<linearGradient id="paint77_linear_122_130" x1="942.175" y1="196.155" x2="942.175" y2="473.194" gradientUnits="userSpaceOnUse">
<stop stop-color="#F7DD43"/>
<stop offset="1" stop-color="#F7DD43" stop-opacity="0"/>
</linearGradient>
<linearGradient id="paint78_linear_122_130" x1="942.175" y1="196.155" x2="942.175" y2="473.194" gradientUnits="userSpaceOnUse">
<stop stop-color="#F7DD43"/>
<stop offset="1" stop-color="#F7DD43" stop-opacity="0"/>
</linearGradient>
<linearGradient id="paint79_linear_122_130" x1="942.175" y1="196.155" x2="942.175" y2="473.194" gradientUnits="userSpaceOnUse">
<stop stop-color="#F7DD43"/>
<stop offset="1" stop-color="#F7DD43" stop-opacity="0"/>
</linearGradient>
<linearGradient id="paint80_linear_122_130" x1="942.175" y1="196.155" x2="942.175" y2="473.194" gradientUnits="userSpaceOnUse">
<stop stop-color="#F7DD43"/>
<stop offset="1" stop-color="#F7DD43" stop-opacity="0"/>
</linearGradient>
<linearGradient id="paint81_linear_122_130" x1="942.175" y1="196.155" x2="942.175" y2="473.194" gradientUnits="userSpaceOnUse">
<stop stop-color="#F7DD43"/>
<stop offset="1" stop-color="#F7DD43" stop-opacity="0"/>
</linearGradient>
<linearGradient id="paint82_linear_122_130" x1="942.175" y1="196.155" x2="942.175" y2="473.194" gradientUnits="userSpaceOnUse">
<stop stop-color="#F7DD43"/>
<stop offset="1" stop-color="#F7DD43" stop-opacity="0"/>
</linearGradient>
<linearGradient id="paint83_linear_122_130" x1="942.175" y1="196.155" x2="942.175" y2="473.194" gradientUnits="userSpaceOnUse">
<stop stop-color="#F7DD43"/>
<stop offset="1" stop-color="#F7DD43" stop-opacity="0"/>
</linearGradient>
<linearGradient id="paint84_linear_122_130" x1="942.175" y1="196.155" x2="942.175" y2="473.194" gradientUnits="userSpaceOnUse">
<stop stop-color="#F7DD43"/>
<stop offset="1" stop-color="#F7DD43" stop-opacity="0"/>
</linearGradient>
<linearGradient id="paint85_linear_122_130" x1="942.175" y1="196.155" x2="942.175" y2="473.194" gradientUnits="userSpaceOnUse">
<stop stop-color="#F7DD43"/>
<stop offset="1" stop-color="#F7DD43" stop-opacity="0"/>
</linearGradient>
<linearGradient id="paint86_linear_122_130" x1="942.175" y1="196.155" x2="942.175" y2="473.194" gradientUnits="userSpaceOnUse">
<stop stop-color="#F7DD43"/>
<stop offset="1" stop-color="#F7DD43" stop-opacity="0"/>
</linearGradient>
<linearGradient id="paint87_linear_122_130" x1="942.175" y1="196.155" x2="942.175" y2="473.194" gradientUnits="userSpaceOnUse">
<stop stop-color="#F7DD43"/>
<stop offset="1" stop-color="#F7DD43" stop-opacity="0"/>
</linearGradient>
<linearGradient id="paint88_linear_122_130" x1="942.175" y1="196.155" x2="942.175" y2="473.194" gradientUnits="userSpaceOnUse">
<stop stop-color="#F7DD43"/>
<stop offset="1" stop-color="#F7DD43" stop-opacity="0"/>
</linearGradient>
<linearGradient id="paint89_linear_122_130" x1="942.175" y1="196.155" x2="942.175" y2="473.194" gradientUnits="userSpaceOnUse">
<stop stop-color="#F7DD43"/>
<stop offset="1" stop-color="#F7DD43" stop-opacity="0"/>
</linearGradient>
<linearGradient id="paint90_linear_122_130" x1="942.175" y1="196.155" x2="942.175" y2="473.194" gradientUnits="userSpaceOnUse">
<stop stop-color="#F7DD43"/>
<stop offset="1" stop-color="#F7DD43" stop-opacity="0"/>
</linearGradient>
<linearGradient id="paint91_linear_122_130" x1="942.175" y1="196.155" x2="942.175" y2="473.194" gradientUnits="userSpaceOnUse">
<stop stop-color="#F7DD43"/>
<stop offset="1" stop-color="#F7DD43" stop-opacity="0"/>
</linearGradient>
<linearGradient id="paint92_linear_122_130" x1="942.175" y1="196.155" x2="942.175" y2="473.194" gradientUnits="userSpaceOnUse">
<stop stop-color="#F7DD43"/>
<stop offset="1" stop-color="#F7DD43" stop-opacity="0"/>
</linearGradient>
<linearGradient id="paint93_linear_122_130" x1="942.175" y1="196.155" x2="942.175" y2="473.194" gradientUnits="userSpaceOnUse">
<stop stop-color="#F7DD43"/>
<stop offset="1" stop-color="#F7DD43" stop-opacity="0"/>
</linearGradient>
<clipPath id="clip0_122_130">
<rect width="1024" height="753" fill="white"/>
</clipPath>
</defs>
</svg>
